<svg width="26" height="27" viewBox="0 0 26 27" fill="none" xmlns="http://www.w3.org/2000/svg">
<path d="M13.0167 0.80542C13.9954 0.8167 14.9702 0.929767 15.9254 1.14281C16.3424 1.23581 16.6543 1.58343 16.7016 2.00803L16.9286 4.04383C17.0312 4.97857 17.8204 5.68654 18.7614 5.68753C19.0142 5.68793 19.2644 5.63526 19.498 5.53186L21.3656 4.7115C21.754 4.54087 22.2078 4.6339 22.4978 4.94358C23.8474 6.38494 24.8524 8.11362 25.4374 9.99953C25.5635 10.4062 25.4184 10.8481 25.0756 11.1008L23.4203 12.3209C22.9482 12.6678 22.6692 13.2188 22.6692 13.8048C22.6692 14.3906 22.9482 14.9416 23.4214 15.2893L25.0782 16.5098C25.421 16.7624 25.5663 17.2044 25.44 17.6112C24.8554 19.4968 23.8508 21.2253 22.502 22.6669C22.2123 22.9765 21.7588 23.0698 21.3704 22.8996L19.4954 22.0781C18.959 21.8433 18.3428 21.8777 17.8359 22.1708C17.329 22.4637 16.9915 22.9804 16.9271 23.5624L16.7016 25.598C16.6552 26.0177 16.35 26.363 15.9392 26.4608C14.0079 26.9202 11.9958 26.9202 10.0645 26.4608C9.6537 26.363 9.34855 26.0177 9.30207 25.598L9.07696 23.5654C9.01086 22.9845 8.67295 22.4694 8.16639 22.1774C7.65983 21.8854 7.04476 21.8512 6.51008 22.0846L4.63459 22.9062C4.24611 23.0765 3.79254 22.9832 3.50287 22.6733C2.15332 21.2301 1.14875 19.4994 0.56475 17.6118C0.438977 17.2053 0.584311 16.7636 0.926951 16.5112L2.58472 15.2898C3.05691 14.9429 3.33579 14.392 3.33579 13.8061C3.33579 13.2201 3.05691 12.6692 2.58411 12.3218L0.927377 11.1026C0.584217 10.85 0.43875 10.4078 0.564977 10.0009C1.14998 8.11495 2.15508 6.38627 3.50466 4.94491C3.79462 4.63523 4.2484 4.54221 4.63682 4.71283L6.50398 5.53305C7.04124 5.76883 7.65888 5.73322 8.16818 5.43567C8.67527 5.14154 9.01287 4.62438 9.07804 4.04227L9.30482 2.00803C9.35218 1.58322 9.66431 1.23547 10.0816 1.14267C11.0379 0.92998 12.0138 0.816953 13.0167 0.80542ZM13 9.80535C10.791 9.80535 9.00008 11.5962 9.00008 13.8054C9.00008 16.0145 10.791 17.8054 13 17.8054C15.2092 17.8054 17 16.0145 17 13.8054C17 11.5962 15.2092 9.80535 13 9.80535Z" fill="black"/>
</svg>
