<svg width="32" height="33" viewBox="0 0 32 33" fill="none" xmlns="http://www.w3.org/2000/svg">
<path d="M5.33325 8.8055C5.33325 7.88477 5.75365 7.08102 6.36556 6.4325C6.97245 5.78929 7.80393 5.25543 8.75549 4.82886C10.6609 3.9747 13.2231 3.47217 15.9999 3.47217C18.7767 3.47217 21.3389 3.9747 23.2443 4.82886C24.1959 5.25543 25.0274 5.78929 25.6343 6.4325C26.2462 7.08102 26.6666 7.88477 26.6666 8.8055V17.1484C26.0715 16.657 25.3975 16.2575 24.6666 15.972V11.9954C24.2387 12.2893 23.7591 12.5514 23.2443 12.7821C21.3389 13.6363 18.7767 14.1388 15.9999 14.1388C13.2231 14.1388 10.6609 13.6363 8.75549 12.7821C8.24076 12.5514 7.76117 12.2893 7.33325 11.9954V24.8055C7.33325 25.0814 7.45384 25.4176 7.82025 25.8059C8.19168 26.1996 8.77585 26.5995 9.57361 26.9571C11.1668 27.6714 13.4381 28.1388 15.9999 28.1388C16.3194 28.1388 16.6345 28.1315 16.9441 28.1175C17.7478 28.8827 18.725 29.4674 19.8106 29.8064C18.623 30.0224 17.3363 30.1388 15.9999 30.1388C13.2231 30.1388 10.6609 29.6363 8.75549 28.7822C7.80393 28.3556 6.97245 27.8218 6.36556 27.1786C5.75365 26.53 5.33325 25.7263 5.33325 24.8055V8.8055ZM7.33325 8.8055C7.33325 9.08138 7.45384 9.41762 7.82025 9.80595C8.19168 10.1996 8.77585 10.5995 9.57361 10.9571C11.1668 11.6713 13.4381 12.1388 15.9999 12.1388C18.5618 12.1388 20.833 11.6713 22.4262 10.9571C23.2239 10.5995 23.8082 10.1996 24.1797 9.80595C24.5461 9.41762 24.6666 9.08138 24.6666 8.8055C24.6666 8.52962 24.5461 8.19338 24.1797 7.80505C23.8082 7.41138 23.2239 7.01149 22.4262 6.65387C20.833 5.93967 18.5618 5.47217 15.9999 5.47217C13.4381 5.47217 11.1668 5.93967 9.57361 6.65387C8.77585 7.01149 8.19168 7.41138 7.82025 7.80505C7.45384 8.19338 7.33325 8.52962 7.33325 8.8055ZM21.9999 28.8055C23.2958 28.8055 24.4957 28.3947 25.4765 27.6963L28.9595 31.1792C29.3501 31.5698 29.9831 31.5698 30.3737 31.1792C30.7642 30.7887 30.7642 30.1556 30.3737 29.7651L26.8907 26.282C27.5891 25.3012 27.9999 24.1014 27.9999 22.8055C27.9999 19.4918 25.3137 16.8055 21.9999 16.8055C18.6862 16.8055 15.9999 19.4918 15.9999 22.8055C15.9999 26.1192 18.6862 28.8055 21.9999 28.8055ZM21.9999 26.8055C19.7907 26.8055 17.9999 25.0147 17.9999 22.8055C17.9999 20.5963 19.7907 18.8055 21.9999 18.8055C24.2091 18.8055 25.9999 20.5963 25.9999 22.8055C25.9999 25.0147 24.2091 26.8055 21.9999 26.8055Z" fill="#4087F3"/>
</svg>
