<svg width="32" height="32" viewBox="0 0 32 32" fill="none" xmlns="http://www.w3.org/2000/svg">
<path d="M23.2001 3.19995C22.7583 3.19995 22.4001 3.55813 22.4001 3.99995C22.4001 4.44178 22.7583 4.79995 23.2001 4.79995H26.0687L18.4001 12.4686L14.1657 8.23427C13.8533 7.92184 13.3468 7.92184 13.0344 8.23427L5.03437 16.2342C4.72194 16.5467 4.72194 17.0532 5.03437 17.3657C5.34679 17.678 5.85332 17.678 6.16573 17.3657L13.6001 9.93133L17.8343 14.1656C18.1468 14.4781 18.6533 14.4781 18.9658 14.1656L27.2001 5.93133V8.79995C27.2001 9.24177 27.5583 9.59995 28.0001 9.59995C28.4418 9.59995 28.8001 9.24177 28.8001 8.79995V3.99995C28.8001 3.55813 28.4418 3.19995 28.0001 3.19995H23.2001ZM24.8001 14.3999C24.3583 14.3999 24.0001 14.7581 24.0001 15.1999V27.9999C24.0001 28.4417 24.3583 28.7999 24.8001 28.7999C25.2418 28.7999 25.6001 28.4417 25.6001 27.9999V15.1999C25.6001 14.7581 25.2418 14.3999 24.8001 14.3999ZM12.0001 17.5999C11.5582 17.5999 11.2001 17.9582 11.2001 18.3999V27.9999C11.2001 28.4417 11.5582 28.7999 12.0001 28.7999C12.4419 28.7999 12.8001 28.4417 12.8001 27.9999V18.3999C12.8001 17.9582 12.4419 17.5999 12.0001 17.5999ZM17.6001 21.5999C17.6001 21.1582 17.9583 20.7999 18.4001 20.7999C18.8418 20.7999 19.2001 21.1582 19.2001 21.5999V27.9999C19.2001 28.4417 18.8418 28.7999 18.4001 28.7999C17.9583 28.7999 17.6001 28.4417 17.6001 27.9999V21.5999ZM4.80005 23.1999C4.80005 22.7582 5.15823 22.3999 5.60005 22.3999C6.04188 22.3999 6.40005 22.7582 6.40005 23.1999V27.9999C6.40005 28.4417 6.04188 28.7999 5.60005 28.7999C5.15823 28.7999 4.80005 28.4417 4.80005 27.9999V23.1999Z" fill="#4087F3"/>
</svg>
