<svg width="32" height="32" viewBox="0 0 32 32" fill="none" xmlns="http://www.w3.org/2000/svg">
<path d="M1.06929 16.8591H4.1679V31.0763C4.1807 31.2654 4.26162 31.4436 4.39568 31.5776C4.52973 31.7117 4.70784 31.7926 4.89699 31.8054H12.7347V24.3322C12.7557 24.0492 12.8777 23.7831 13.0784 23.5824C13.2791 23.3817 13.5452 23.2597 13.8283 23.2386H18.0205C18.3036 23.2597 18.5697 23.3817 18.7704 23.5824C18.9711 23.7831 19.0931 24.0492 19.1142 24.3322V31.8054H26.9518C27.1519 31.768 27.3397 31.682 27.4987 31.5548C27.6576 31.4276 27.7828 31.2633 27.8632 31.0763V16.8591H30.9618C31.1619 16.8218 31.3497 16.7357 31.5087 16.6086C31.6676 16.4814 31.7928 16.317 31.8732 16.13C31.9811 15.9568 32.0221 15.7501 31.9886 15.5488C31.955 15.3475 31.8492 15.1653 31.6909 15.0364L16.7446 0.272423C16.5424 0.0967425 16.2835 0 16.0155 0C15.7476 0 15.4887 0.0967425 15.2865 0.272423L0.340207 15.0364C0.247815 15.1092 0.170722 15.1996 0.113358 15.3023C0.0559949 15.405 0.0194927 15.5181 0.00594322 15.6349C-0.0076063 15.7518 0.00206625 15.8702 0.0344057 15.9833C0.0667452 16.0964 0.121114 16.202 0.19439 16.2941C0.276069 16.4581 0.400404 16.5972 0.554348 16.6966C0.708292 16.796 0.886166 16.8521 1.06929 16.8591ZM16.1978 2.45967L28.41 14.6719H27.8632C27.286 14.6813 26.7351 14.9147 26.3269 15.3229C25.9188 15.731 25.6853 16.2819 25.6759 16.8591V29.2536C25.6677 29.3475 25.6267 29.4355 25.56 29.5022C25.4933 29.5689 25.4053 29.6099 25.3114 29.6181H21.4837V24.15C21.4813 23.7454 21.3993 23.3454 21.2422 22.9725C21.0852 22.5997 20.8563 22.2615 20.5686 21.9771C20.2809 21.6928 19.9399 21.4679 19.5653 21.3153C19.1906 21.1627 18.7896 21.0854 18.3851 21.0878H14.1564C13.7519 21.0902 13.3518 21.1722 12.9789 21.3293C12.6061 21.4863 12.2679 21.7152 11.9835 22.0029C11.6992 22.2906 11.4743 22.6316 11.3217 23.0062C11.1691 23.3809 11.0918 23.7819 11.0942 24.1864V29.6181H7.08425C6.99032 29.6099 6.9023 29.5689 6.83563 29.5022C6.76896 29.4355 6.72792 29.3475 6.71971 29.2536V16.8591C6.71032 16.2819 6.47686 15.731 6.06869 15.3229C5.66052 14.9147 5.10961 14.6813 4.53245 14.6719H3.98563L16.1978 2.45967Z" fill="#4087F3"/>
<path d="M16.0156 15.6926C16.4482 15.6926 16.8711 15.5643 17.2308 15.324C17.5905 15.0837 17.8708 14.7421 18.0364 14.3424C18.2019 13.9427 18.2452 13.5029 18.1609 13.0787C18.0765 12.6544 17.8681 12.2646 17.5622 11.9587C17.2564 11.6529 16.8666 11.4445 16.4423 11.3601C16.0181 11.2757 15.5783 11.3191 15.1786 11.4846C14.7789 11.6502 14.4373 11.9305 14.197 12.2902C13.9566 12.6499 13.8284 13.0728 13.8284 13.5054C13.8284 14.0855 14.0588 14.6418 14.469 15.052C14.8792 15.4622 15.4355 15.6926 16.0156 15.6926Z" fill="#4087F3"/>
</svg>
