<svg width="25" height="24" viewBox="0 0 25 24" fill="none" xmlns="http://www.w3.org/2000/svg">
<path d="M15.8285 17.9991C16.1607 17.9991 16.43 18.2679 16.43 18.5996C16.43 18.8943 16.2172 19.1396 15.9367 19.1904L15.8285 19.2001H3.83143C3.49926 19.2001 3.22998 18.9313 3.22998 18.5996C3.22998 18.3048 3.44274 18.0596 3.72331 18.0087L3.83143 17.9991H15.8285ZM21.8289 10.8086C22.1608 10.8086 22.43 11.0774 22.43 11.4091C22.43 11.7039 22.2173 11.9491 21.9369 11.9999L21.8289 12.0096H3.83112C3.49912 12.0096 3.22998 11.7407 3.22998 11.4091C3.22998 11.1143 3.44263 10.8691 3.72306 10.8182L3.83112 10.8086H21.8289ZM17.0302 3.6001C17.3623 3.6001 17.6314 3.86896 17.6314 4.2006C17.6314 4.49541 17.4188 4.7406 17.1383 4.79145L17.0302 4.80112H3.83112C3.49912 4.80112 3.22998 4.53226 3.22998 4.2006C3.22998 3.90581 3.44263 3.66061 3.72306 3.60977L3.83112 3.6001H17.0302Z" stroke="#4087F3"/>
</svg>
