<svg width="32" height="33" viewBox="0 0 32 33" fill="none" xmlns="http://www.w3.org/2000/svg">
<path d="M16.0165 3.80542C16.9951 3.8167 17.9699 3.92977 18.9251 4.14281C19.3422 4.23581 19.6541 4.58343 19.7014 5.00803L19.9283 7.04383C20.031 7.97857 20.8202 8.68654 21.7611 8.68753C22.0139 8.68793 22.2642 8.63526 22.4978 8.53186L24.3654 7.7115C24.7538 7.54087 25.2075 7.6339 25.4975 7.94358C26.8471 9.38494 27.8522 11.1136 28.4371 12.9995C28.5633 13.4062 28.4182 13.8481 28.0754 14.1008L26.4201 15.3209C25.9479 15.6678 25.669 16.2188 25.669 16.8048C25.669 17.3906 25.9479 17.9416 26.4211 18.2893L28.0779 19.5098C28.4207 19.7624 28.5661 20.2044 28.4398 20.6112C27.8551 22.4968 26.8506 24.2253 25.5018 25.6669C25.2121 25.9765 24.7586 26.0698 24.3702 25.8996L22.4951 25.0781C21.9587 24.8433 21.3426 24.8777 20.8357 25.1708C20.3287 25.4637 19.9913 25.9804 19.9269 26.5624L19.7014 28.598C19.655 29.0177 19.3498 29.363 18.939 29.4608C17.0077 29.9202 14.9955 29.9202 13.0643 29.4608C12.6535 29.363 12.3483 29.0177 12.3018 28.598L12.0767 26.5654C12.0106 25.9845 11.6727 25.4694 11.1661 25.1774C10.6596 24.8854 10.0445 24.8512 9.50984 25.0846L7.63435 25.9062C7.24587 26.0765 6.79229 25.9832 6.50263 25.6733C5.15308 24.2301 4.14851 22.4994 3.56451 20.6118C3.43873 20.2053 3.58407 19.7636 3.92671 19.5112L5.58448 18.2898C6.05667 17.9429 6.33555 17.392 6.33555 16.8061C6.33555 16.2201 6.05667 15.6692 5.58387 15.3218L3.92713 14.1026C3.58397 13.85 3.43851 13.4078 3.56473 13.0009C4.14973 11.115 5.15484 9.38627 6.50441 7.94491C6.79437 7.63523 7.24816 7.54221 7.63657 7.71283L9.50373 8.53305C10.041 8.76883 10.6586 8.73322 11.1679 8.43567C11.675 8.14154 12.0126 7.62438 12.0778 7.04227L12.3046 5.00803C12.3519 4.58322 12.6641 4.23547 13.0813 4.14267C14.0377 3.92998 15.0135 3.81695 16.0165 3.80542ZM15.9998 12.8054C13.7907 12.8054 11.9998 14.5962 11.9998 16.8054C11.9998 19.0145 13.7907 20.8054 15.9998 20.8054C18.209 20.8054 19.9998 19.0145 19.9998 16.8054C19.9998 14.5962 18.209 12.8054 15.9998 12.8054Z" fill="#4087F3"/>
</svg>
