<svg width="24" height="24" viewBox="0 0 24 24" fill="none" xmlns="http://www.w3.org/2000/svg">
<path d="M12.0002 1.99609C16.05 1.99609 19.3568 5.19084 19.4959 9.24512L19.5002 9.49608V13.5931L20.8802 16.7491C20.9491 16.907 20.9848 17.0775 20.9848 17.2499C20.9848 17.9402 20.4251 18.4999 19.7348 18.4999L15.0002 18.5014C15.0002 20.1582 13.657 21.5014 12.0002 21.5014C10.4024 21.5014 9.09647 20.2524 9.00519 18.6776L8.99967 18.4991L4.27497 18.4999C4.10364 18.4999 3.93413 18.4646 3.77697 18.3964C3.14377 18.1213 2.85342 17.3851 3.12846 16.7519L4.50012 13.594V9.496C4.50072 5.3412 7.85221 1.99609 12.0002 1.99609ZM13.4996 18.4991L10.5002 18.5014C10.5002 19.3298 11.1718 20.0014 12.0002 20.0014C12.7798 20.0014 13.4206 19.4065 13.4932 18.6458L13.4996 18.4991ZM12.0002 3.49609C8.67999 3.49609 6.0006 6.17035 6.00012 9.49608V13.9057L4.65613 16.9999H19.3526L18.0002 13.9067L18.0002 9.50896L17.9966 9.28376C17.8854 6.05027 15.2418 3.49609 12.0002 3.49609Z" fill="#191919"/>
<ellipse cx="16.8" cy="7.1999" rx="4.8" ry="4.8" fill="#FF4444"/>
</svg>
