<svg width="22" height="22" viewBox="0 0 22 22" fill="none" xmlns="http://www.w3.org/2000/svg">
<path d="M9.01619 1.86448C9.11934 1.89957 9.22011 1.94131 9.31782 1.98942L10.4937 2.56834C10.8128 2.72546 11.1868 2.72546 11.5059 2.56834L12.6818 1.98942C13.9308 1.37447 15.4419 1.8885 16.0568 3.13753L16.1242 3.28633L16.1817 3.43918L16.6039 4.67998C16.7184 5.01673 16.9829 5.28119 17.3196 5.39575L18.5604 5.81783C19.8785 6.26619 20.5835 7.69816 20.1351 9.01619C20.1 9.11934 20.0583 9.22011 20.0102 9.31782L19.4312 10.4937C19.2741 10.8128 19.2741 11.1868 19.4312 11.5059L20.0102 12.6818C20.6252 13.9308 20.1111 15.4419 18.8621 16.0568C18.7643 16.1049 18.6636 16.1467 18.5604 16.1817L17.3196 16.6039C16.9829 16.7184 16.7184 16.9829 16.6039 17.3196L16.1817 18.5604C15.7334 19.8785 14.3015 20.5835 12.9834 20.1351C12.8803 20.1 12.7795 20.0583 12.6818 20.0102L11.5059 19.4312C11.1868 19.2741 10.8128 19.2741 10.4937 19.4312L9.31782 20.0102C8.0688 20.6252 6.55773 20.1111 5.94278 18.8621C5.89465 18.7643 5.85292 18.6636 5.81783 18.5604L5.39575 17.3196C5.28119 16.9829 5.01673 16.7184 4.67998 16.6039L3.43918 16.1817C2.12113 15.7334 1.41612 14.3015 1.86448 12.9834C1.89957 12.8803 1.94131 12.7795 1.98942 12.6818L2.56834 11.5059C2.72546 11.1868 2.72546 10.8128 2.56834 10.4937L1.98942 9.31782C1.37447 8.0688 1.8885 6.55773 3.13753 5.94278C3.23527 5.89465 3.33603 5.85292 3.43918 5.81783L4.67998 5.39575C5.01673 5.28119 5.28119 5.01673 5.39575 4.67998L5.81783 3.43918C6.26619 2.12113 7.69816 1.41612 9.01619 1.86448ZM7.11957 3.88199L6.69749 5.12279C6.44547 5.86366 5.86366 6.44547 5.12279 6.69749L3.88199 7.11957C3.83511 7.13552 3.78932 7.1545 3.74488 7.17637C3.17714 7.45589 2.94349 8.14274 3.22302 8.71049L3.80194 9.88634C4.14759 10.5884 4.14759 11.4112 3.80194 12.1133L3.22302 13.2891C3.20115 13.3336 3.18217 13.3794 3.16622 13.4262C2.96242 14.0254 3.28288 14.6762 3.88199 14.8801L5.12279 15.3021C5.86366 15.5542 6.44547 16.136 6.69749 16.8768L7.11957 18.1176C7.13552 18.1645 7.1545 18.2103 7.17637 18.2547C7.45589 18.8225 8.14274 19.0561 8.71049 18.7766L9.88634 18.1977C10.5884 17.852 11.4112 17.852 12.1133 18.1977L13.2891 18.7766C13.3336 18.7984 13.3794 18.8174 13.4262 18.8334C14.0254 19.0371 14.6762 18.7167 14.8801 18.1176L15.3021 16.8768C15.5542 16.136 16.136 15.5542 16.8768 15.3021L18.1176 14.8801C18.1645 14.8641 18.2103 14.8451 18.2547 14.8232C18.8225 14.5437 19.0561 13.8569 18.7766 13.2891L18.1977 12.1133C17.852 11.4112 17.852 10.5884 18.1977 9.88634L18.7766 8.71049C18.7984 8.66606 18.8174 8.62026 18.8334 8.57338C19.0371 7.97427 18.7167 7.32338 18.1176 7.11957L16.8768 6.69749C16.136 6.44547 15.5542 5.86366 15.3021 5.12279L14.8801 3.88199L14.8538 3.81252L14.8232 3.74488L14.7662 3.64239C14.4583 3.14994 13.8214 2.96096 13.2891 3.22302L12.1133 3.80194C11.4112 4.14759 10.5884 4.14759 9.88634 3.80194L8.71049 3.22302C8.66606 3.20115 8.62026 3.18217 8.57338 3.16622C7.97427 2.96242 7.32338 3.28288 7.11957 3.88199ZM9.21268 13.1896L14.1804 8.222C14.4489 7.95352 14.8841 7.95352 15.1526 8.222C15.3967 8.46608 15.4189 8.84802 15.2191 9.11717L15.1526 9.19426L9.65259 14.6943C9.39061 14.9563 8.97412 14.9603 8.70719 14.7198L8.63832 14.6482L6.34665 11.8982C6.10358 11.6066 6.14298 11.1731 6.43468 10.93C6.69985 10.709 7.08223 10.7215 7.3322 10.9447L7.40295 11.0181L9.21268 13.1896L14.1804 8.222L9.21268 13.1896Z" fill="#303339"/>
</svg>
