<svg width="224" height="195" viewBox="0 0 224 195" fill="none" xmlns="http://www.w3.org/2000/svg">
<path d="M208.999 86.7702L75.279 115.193C64.0688 117.576 56.9127 128.596 59.2955 139.806C61.6783 151.016 72.6977 158.172 83.908 155.789L202.448 130.593" stroke="url(#paint0_linear_458_2230)" stroke-width="8" stroke-linecap="round" stroke-linejoin="round"/>
<path d="M131.954 154.966C134.018 164.679 127.819 174.229 118.106 176.293C108.391 178.358 98.8415 172.156 96.7771 162.443C94.7126 152.73 100.914 143.181 110.629 141.116C120.342 139.051 129.889 145.253 131.954 154.966Z" fill="#4087F3"/>
<path d="M123.238 156.819C124.28 161.719 121.153 166.537 116.254 167.579C111.354 168.62 106.535 165.491 105.493 160.59C104.452 155.69 107.582 150.875 112.482 149.834C117.381 148.792 122.197 151.918 123.238 156.819Z" fill="#152C4E"/>
<path d="M218.071 136.661C220.136 146.374 213.936 155.924 204.221 157.989C194.507 160.053 184.956 153.851 182.891 144.139C180.827 134.426 187.03 124.876 196.743 122.812C206.459 120.747 216.007 126.948 218.071 136.661Z" fill="#4087F3"/>
<path d="M209.353 138.514C210.394 143.415 207.27 148.232 202.368 149.274C197.468 150.316 192.649 147.187 191.607 142.286C190.566 137.386 193.696 132.571 198.596 131.53C203.498 130.488 208.311 133.614 209.353 138.514Z" fill="#04090F"/>
<path d="M25.525 40.3919L39.4777 37.4262L85.3227 105.142L203.384 80.0476L191.44 23.8551L50.5627 53.7994" stroke="url(#paint1_linear_458_2230)" stroke-width="8" stroke-linecap="round" stroke-linejoin="round"/>
<path d="M28.1974 39.8225C28.7939 42.6292 27.0005 45.3912 24.1945 45.9876L7.24437 49.5905C4.4387 50.1869 1.67692 48.3931 1.08034 45.5864C0.48333 42.7777 2.27759 40.0197 5.08326 39.4233L22.0334 35.8204C24.8394 35.224 27.6003 37.0138 28.1974 39.8225Z" fill="#4087F3"/>
<path d="M69.0729 105.405C71.7668 104.833 73.4295 104.479 73.4295 104.479" stroke="#4087F3" stroke-width="6" stroke-linecap="round"/>
<defs>
<linearGradient id="paint0_linear_458_2230" x1="131.99" y1="103.139" x2="140.619" y2="143.735" gradientUnits="userSpaceOnUse">
<stop stop-color="#0065FF"/>
<stop offset="1" stop-color="#C5FB51"/>
</linearGradient>
<linearGradient id="paint1_linear_458_2230" x1="106.578" y1="23.1636" x2="122.331" y2="97.2759" gradientUnits="userSpaceOnUse">
<stop stop-color="#0065FF"/>
<stop offset="1" stop-color="#C5FB51"/>
</linearGradient>
</defs>
</svg>
