<svg width="19" height="19" viewBox="0 0 19 19" fill="none" xmlns="http://www.w3.org/2000/svg">
<path d="M8 0.75C12.0041 0.75 15.25 3.99594 15.25 8C15.25 9.7319 14.6427 11.3219 13.6295 12.5688L18.5303 17.4697C18.8232 17.7626 18.8232 18.2374 18.5303 18.5303C18.2641 18.7966 17.8474 18.8208 17.5538 18.6029L17.4697 18.5303L12.5688 13.6295C11.3219 14.6427 9.7319 15.25 8 15.25C3.99594 15.25 0.75 12.0041 0.75 8C0.75 3.99594 3.99594 0.75 8 0.75ZM8 2.25C4.82436 2.25 2.25 4.82436 2.25 8C2.25 11.1756 4.82436 13.75 8 13.75C11.1756 13.75 13.75 11.1756 13.75 8C13.75 4.82436 11.1756 2.25 8 2.25Z" fill="white"/>
</svg>
