<svg width="40" height="40" viewBox="0 0 40 40" fill="none" xmlns="http://www.w3.org/2000/svg">
<circle cx="20" cy="20" r="20" fill="#4087F3"/>
<path d="M20.7496 11C21.1293 11 21.4432 11.282 21.4929 11.6481L21.4998 11.7499L21.501 19H28.7541C29.1683 19 29.5041 19.3358 29.5041 19.75C29.5041 20.1297 29.2219 20.4435 28.8559 20.4932L28.7541 20.5H21.501L21.503 27.7491C21.5031 28.1633 21.1674 28.4993 20.7532 28.4993C20.3735 28.4993 20.0596 28.2173 20.0099 27.8512L20.003 27.7494L20.001 20.5H12.752C12.3377 20.5 12.002 20.1642 12.002 19.75C12.002 19.3703 12.2841 19.0565 12.6502 19.0068L12.752 19H20.001L19.9998 11.7501C19.9997 11.3359 20.3354 11 20.7496 11Z" fill="white"/>
</svg>
