<svg width="25" height="25" viewBox="0 0 25 25" fill="none" xmlns="http://www.w3.org/2000/svg">
<path d="M10.1618 11.7973C10.1763 10.6928 11.0834 9.80923 12.1879 9.82376C13.2924 9.83829 14.1759 10.7455 14.1614 11.8499C14.1469 12.9543 13.2398 13.8379 12.1353 13.8234C11.0308 13.8089 10.1472 12.9017 10.1618 11.7973ZM10.2845 4.46476C10.299 3.36032 11.2062 2.47671 12.3106 2.49124C13.4151 2.50577 14.2987 3.41293 14.2842 4.51737C14.2696 5.62181 13.3625 6.50542 12.258 6.49089C11.1535 6.47636 10.27 5.5692 10.2845 4.46476ZM10.039 19.1298C10.0535 18.0253 10.9607 17.1418 12.0651 17.1563C13.1696 17.1708 14.0532 18.0779 14.0387 19.1824C14.0241 20.2869 13.117 21.1705 12.0125 21.1559C10.908 21.1414 10.0245 20.2343 10.039 19.1298Z" fill="#36393F"/>
</svg>
