<svg width="226" height="45" viewBox="0 0 226 45" fill="none" xmlns="http://www.w3.org/2000/svg">
<rect x="0.5" y="0.5" width="225" height="44" rx="3.5" fill="white" stroke="#FF5555"/>
<path d="M44.0254 27.3V17.2786H48.2842C49.3551 17.2786 50.1322 17.3697 50.6152 17.552C51.1029 17.7297 51.4925 18.0487 51.7842 18.509C52.0758 18.9693 52.2217 19.4957 52.2217 20.0881C52.2217 20.8401 52.0007 21.4622 51.5586 21.9543C51.1165 22.442 50.4557 22.7496 49.5762 22.8772C50.0137 23.1324 50.3737 23.4127 50.6562 23.718C50.9434 24.0234 51.3285 24.5657 51.8115 25.345L53.0352 27.3H50.6152L49.1523 25.1194C48.6328 24.3401 48.2773 23.8502 48.0859 23.6497C47.8945 23.4446 47.6917 23.3056 47.4775 23.2327C47.2633 23.1552 46.9238 23.1165 46.459 23.1165H46.0488V27.3H44.0254ZM46.0488 21.5168H47.5459C48.5166 21.5168 49.1227 21.4758 49.3643 21.3938C49.6058 21.3118 49.7949 21.1705 49.9316 20.97C50.0684 20.7694 50.1367 20.5188 50.1367 20.218C50.1367 19.8808 50.0456 19.6096 49.8633 19.4045C49.6855 19.1949 49.4326 19.0627 49.1045 19.0081C48.9404 18.9853 48.4482 18.9739 47.6279 18.9739H46.0488V21.5168ZM58.3262 24.9895L60.2402 25.3108C59.9941 26.0126 59.6045 26.5481 59.0713 26.9172C58.5426 27.2818 57.8796 27.4641 57.082 27.4641C55.8197 27.4641 54.8854 27.0517 54.2793 26.2268C53.8008 25.566 53.5615 24.732 53.5615 23.7249C53.5615 22.5217 53.876 21.5806 54.5049 20.9016C55.1338 20.218 55.929 19.8762 56.8906 19.8762C57.9707 19.8762 58.8229 20.234 59.4473 20.9495C60.0716 21.6604 60.3701 22.7519 60.3428 24.2239H55.5303C55.5439 24.7935 55.6989 25.2379 55.9951 25.5569C56.2913 25.8713 56.6605 26.0286 57.1025 26.0286C57.4033 26.0286 57.6562 25.9465 57.8613 25.7825C58.0664 25.6184 58.2214 25.3541 58.3262 24.9895ZM58.4355 23.0481C58.4219 22.4921 58.2783 22.0706 58.0049 21.7834C57.7314 21.4918 57.3988 21.3459 57.0068 21.3459C56.5876 21.3459 56.2412 21.4986 55.9678 21.804C55.6943 22.1093 55.5599 22.524 55.5645 23.0481H58.4355ZM61.2383 25.2288L63.166 24.9348C63.248 25.3085 63.4144 25.5933 63.665 25.7893C63.9157 25.9807 64.2666 26.0764 64.7178 26.0764C65.2145 26.0764 65.5882 25.9853 65.8389 25.803C66.0075 25.6754 66.0918 25.5045 66.0918 25.2903C66.0918 25.1444 66.0462 25.0237 65.9551 24.928C65.8594 24.8368 65.6452 24.7525 65.3125 24.675C63.763 24.3333 62.7809 24.0211 62.3662 23.7385C61.792 23.3466 61.5049 22.802 61.5049 22.1047C61.5049 21.4758 61.7533 20.9472 62.25 20.5188C62.7467 20.0904 63.5169 19.8762 64.5605 19.8762C65.554 19.8762 66.2923 20.038 66.7754 20.3616C67.2585 20.6851 67.5911 21.1637 67.7734 21.7971L65.9619 22.1321C65.8844 21.8495 65.7363 21.6331 65.5176 21.4827C65.3034 21.3323 64.9958 21.2571 64.5947 21.2571C64.0889 21.2571 63.7266 21.3277 63.5078 21.469C63.362 21.5693 63.2891 21.6991 63.2891 21.8586C63.2891 21.9954 63.3529 22.1116 63.4805 22.2073C63.6536 22.3349 64.2507 22.5149 65.2715 22.7473C66.2969 22.9797 67.0124 23.2646 67.418 23.6018C67.819 23.9436 68.0195 24.4198 68.0195 25.0305C68.0195 25.6959 67.7415 26.2678 67.1855 26.7463C66.6296 27.2249 65.807 27.4641 64.7178 27.4641C63.7288 27.4641 62.945 27.2636 62.3662 26.8625C61.792 26.4615 61.416 25.9169 61.2383 25.2288ZM73.9121 24.9895L75.8262 25.3108C75.5801 26.0126 75.1904 26.5481 74.6572 26.9172C74.1286 27.2818 73.4655 27.4641 72.668 27.4641C71.4056 27.4641 70.4714 27.0517 69.8652 26.2268C69.3867 25.566 69.1475 24.732 69.1475 23.7249C69.1475 22.5217 69.4619 21.5806 70.0908 20.9016C70.7197 20.218 71.515 19.8762 72.4766 19.8762C73.5566 19.8762 74.4089 20.234 75.0332 20.9495C75.6576 21.6604 75.9561 22.7519 75.9287 24.2239H71.1162C71.1299 24.7935 71.2848 25.2379 71.5811 25.5569C71.8773 25.8713 72.2464 26.0286 72.6885 26.0286C72.9893 26.0286 73.2422 25.9465 73.4473 25.7825C73.6523 25.6184 73.8073 25.3541 73.9121 24.9895ZM74.0215 23.0481C74.0078 22.4921 73.8643 22.0706 73.5908 21.7834C73.3174 21.4918 72.9847 21.3459 72.5928 21.3459C72.1735 21.3459 71.8271 21.4986 71.5537 21.804C71.2803 22.1093 71.1458 22.524 71.1504 23.0481H74.0215ZM80.8301 20.0403V21.5715H79.5176V24.4973C79.5176 25.0898 79.529 25.4361 79.5518 25.5364C79.5791 25.6321 79.6361 25.7118 79.7227 25.7756C79.8138 25.8394 79.9232 25.8713 80.0508 25.8713C80.2285 25.8713 80.486 25.8098 80.8232 25.6868L80.9873 27.177C80.5407 27.3684 80.0348 27.4641 79.4697 27.4641C79.1234 27.4641 78.8112 27.4071 78.5332 27.2932C78.2552 27.1747 78.0501 27.0243 77.918 26.842C77.7904 26.6552 77.7015 26.4045 77.6514 26.0901C77.6104 25.8668 77.5898 25.4156 77.5898 24.7366V21.5715H76.708V20.0403H77.5898V18.5979L79.5176 17.4768V20.0403H80.8301ZM94.5908 27.3H92.3896L91.5146 25.0237H87.5088L86.6816 27.3H84.5352L88.4385 17.2786H90.5781L94.5908 27.3ZM90.8652 23.3352L89.4844 19.6165L88.1309 23.3352H90.8652ZM95.6572 27.3V17.2786H97.5781V27.3H95.6572ZM99.5537 27.3V17.2786H101.475V27.3H99.5537ZM106.848 24.0393L108.816 23.8479C108.935 24.5087 109.174 24.9941 109.534 25.304C109.899 25.6139 110.389 25.7688 111.004 25.7688C111.656 25.7688 112.146 25.6321 112.474 25.3586C112.806 25.0806 112.973 24.7571 112.973 24.3879C112.973 24.151 112.902 23.9504 112.761 23.7864C112.624 23.6178 112.382 23.4719 112.036 23.3489C111.799 23.2668 111.259 23.121 110.416 22.9114C109.331 22.6425 108.57 22.3121 108.133 21.9202C107.518 21.3687 107.21 20.6965 107.21 19.9036C107.21 19.3931 107.354 18.9169 107.641 18.4749C107.932 18.0282 108.349 17.6887 108.892 17.4563C109.438 17.2239 110.097 17.1077 110.867 17.1077C112.125 17.1077 113.071 17.3834 113.704 17.9348C114.342 18.4862 114.677 19.2222 114.709 20.1428L112.686 20.2317C112.599 19.7167 112.412 19.3476 112.125 19.1243C111.842 18.8964 111.416 18.7825 110.847 18.7825C110.259 18.7825 109.799 18.9032 109.466 19.1448C109.252 19.2997 109.145 19.5071 109.145 19.7668C109.145 20.0038 109.245 20.2066 109.445 20.3752C109.701 20.5894 110.32 20.8127 111.305 21.0452C112.289 21.2776 113.016 21.5191 113.485 21.7698C113.959 22.0159 114.328 22.3554 114.593 22.7883C114.862 23.2167 114.996 23.7476 114.996 24.3811C114.996 24.9553 114.837 25.4931 114.518 25.9944C114.199 26.4957 113.747 26.8694 113.164 27.1155C112.581 27.357 111.854 27.4778 110.983 27.4778C109.716 27.4778 108.743 27.1861 108.064 26.6028C107.385 26.0149 106.98 25.1604 106.848 24.0393ZM120.014 20.0403V21.5715H118.701V24.4973C118.701 25.0898 118.713 25.4361 118.735 25.5364C118.763 25.6321 118.82 25.7118 118.906 25.7756C118.997 25.8394 119.107 25.8713 119.234 25.8713C119.412 25.8713 119.67 25.8098 120.007 25.6868L120.171 27.177C119.724 27.3684 119.218 27.4641 118.653 27.4641C118.307 27.4641 117.995 27.4071 117.717 27.2932C117.439 27.1747 117.234 27.0243 117.102 26.842C116.974 26.6552 116.885 26.4045 116.835 26.0901C116.794 25.8668 116.773 25.4156 116.773 24.7366V21.5715H115.892V20.0403H116.773V18.5979L118.701 17.4768V20.0403H120.014ZM120.902 23.5676C120.902 22.9296 121.06 22.3121 121.374 21.7151C121.688 21.1181 122.133 20.6624 122.707 20.3479C123.286 20.0334 123.931 19.8762 124.642 19.8762C125.74 19.8762 126.64 20.234 127.342 20.9495C128.044 21.6604 128.395 22.5605 128.395 23.6497C128.395 24.748 128.039 25.6594 127.328 26.384C126.622 27.1041 125.731 27.4641 124.655 27.4641C123.99 27.4641 123.354 27.3137 122.748 27.0129C122.146 26.7122 121.688 26.2724 121.374 25.6936C121.06 25.1103 120.902 24.4016 120.902 23.5676ZM122.871 23.6702C122.871 24.3902 123.042 24.9417 123.384 25.3245C123.726 25.7073 124.147 25.8987 124.648 25.8987C125.15 25.8987 125.569 25.7073 125.906 25.3245C126.248 24.9417 126.419 24.3857 126.419 23.6565C126.419 22.9456 126.248 22.3987 125.906 22.0159C125.569 21.6331 125.15 21.4417 124.648 21.4417C124.147 21.4417 123.726 21.6331 123.384 22.0159C123.042 22.3987 122.871 22.9501 122.871 23.6702ZM136.235 22.1868L134.342 22.5286C134.278 22.1503 134.132 21.8655 133.904 21.6741C133.681 21.4827 133.389 21.387 133.029 21.387C132.551 21.387 132.168 21.5533 131.881 21.886C131.598 22.2141 131.457 22.7655 131.457 23.5403C131.457 24.4016 131.601 25.01 131.888 25.3655C132.179 25.7209 132.569 25.8987 133.057 25.8987C133.421 25.8987 133.72 25.7961 133.952 25.5911C134.185 25.3814 134.349 25.0237 134.444 24.5178L136.331 24.8391C136.135 25.705 135.759 26.359 135.203 26.801C134.647 27.2431 133.902 27.4641 132.968 27.4641C131.906 27.4641 131.058 27.1292 130.425 26.4592C129.796 25.7893 129.481 24.8619 129.481 23.677C129.481 22.4784 129.798 21.5465 130.432 20.8811C131.065 20.2112 131.922 19.8762 133.002 19.8762C133.886 19.8762 134.588 20.0676 135.107 20.4504C135.632 20.8287 136.007 21.4075 136.235 22.1868ZM137.63 27.3V17.2786H139.551V22.5969L141.8 20.0403H144.165L141.684 22.6926L144.343 27.3H142.271L140.446 24.0393L139.551 24.9758V27.3H137.63ZM144.814 25.2288L146.742 24.9348C146.824 25.3085 146.991 25.5933 147.241 25.7893C147.492 25.9807 147.843 26.0764 148.294 26.0764C148.791 26.0764 149.164 25.9853 149.415 25.803C149.584 25.6754 149.668 25.5045 149.668 25.2903C149.668 25.1444 149.622 25.0237 149.531 24.928C149.436 24.8368 149.221 24.7525 148.889 24.675C147.339 24.3333 146.357 24.0211 145.942 23.7385C145.368 23.3466 145.081 22.802 145.081 22.1047C145.081 21.4758 145.329 20.9472 145.826 20.5188C146.323 20.0904 147.093 19.8762 148.137 19.8762C149.13 19.8762 149.868 20.038 150.352 20.3616C150.835 20.6851 151.167 21.1637 151.35 21.7971L149.538 22.1321C149.461 21.8495 149.312 21.6331 149.094 21.4827C148.88 21.3323 148.572 21.2571 148.171 21.2571C147.665 21.2571 147.303 21.3277 147.084 21.469C146.938 21.5693 146.865 21.6991 146.865 21.8586C146.865 21.9954 146.929 22.1116 147.057 22.2073C147.23 22.3349 147.827 22.5149 148.848 22.7473C149.873 22.9797 150.589 23.2646 150.994 23.6018C151.395 23.9436 151.596 24.4198 151.596 25.0305C151.596 25.6959 151.318 26.2678 150.762 26.7463C150.206 27.2249 149.383 27.4641 148.294 27.4641C147.305 27.4641 146.521 27.2636 145.942 26.8625C145.368 26.4615 144.992 25.9169 144.814 25.2288Z" fill="#FF5555"/>
<path d="M194 11.75C195.733 11.75 197.149 13.1064 197.245 14.8156L197.25 15H202.5C202.914 15 203.25 15.3358 203.25 15.75C203.25 16.1297 202.968 16.4435 202.602 16.4932L202.5 16.5H201.704L200.424 29.5192C200.291 30.8683 199.198 31.91 197.863 31.9945L197.687 32H190.313C188.957 32 187.814 31.0145 187.599 29.6934L187.576 29.5192L186.295 16.5H185.5C185.12 16.5 184.807 16.2178 184.757 15.8518L184.75 15.75C184.75 15.3703 185.032 15.0565 185.398 15.0068L185.5 15H190.75C190.75 13.2051 192.205 11.75 194 11.75ZM200.197 16.5H187.802L189.069 29.3724C189.128 29.9696 189.6 30.4343 190.186 30.4936L190.313 30.5H197.687C198.287 30.5 198.796 30.0751 198.912 29.4982L198.931 29.3724L200.197 16.5ZM195.75 19.25C196.13 19.25 196.444 19.5321 196.493 19.8982L196.5 20V27C196.5 27.4142 196.164 27.75 195.75 27.75C195.37 27.75 195.056 27.4678 195.007 27.1018L195 27V20C195 19.5858 195.336 19.25 195.75 19.25ZM192.25 19.25C192.63 19.25 192.944 19.5321 192.993 19.8982L193 20V27C193 27.4142 192.664 27.75 192.25 27.75C191.87 27.75 191.557 27.4678 191.507 27.1018L191.5 27V20C191.5 19.5858 191.836 19.25 192.25 19.25ZM194 13.25C193.082 13.25 192.329 13.9571 192.256 14.8565L192.25 15H195.75C195.75 14.0335 194.967 13.25 194 13.25Z" fill="#FF5555"/>
</svg>
