<svg width="26" height="26" viewBox="0 0 26 26" fill="none" xmlns="http://www.w3.org/2000/svg">
<mask id="path-1-inside-1_96:12" fill="white">
<path d="M13.0166 0C13.9952 0.01128 14.97 0.124347 15.9252 0.337387C16.3423 0.430387 16.6542 0.778013 16.7015 1.20261L16.9284 3.23841C17.0311 4.17315 17.8203 4.88112 18.7612 4.88211C19.014 4.88251 19.2643 4.82984 19.4979 4.72644L21.3655 3.90608C21.7539 3.73545 22.2076 3.82848 22.4976 4.13816C23.8472 5.57952 24.8523 7.3082 25.4372 9.19411C25.5634 9.60077 25.4183 10.0427 25.0755 10.2953L23.4202 11.5155C22.948 11.8624 22.6691 12.4133 22.6691 12.9993C22.6691 13.5852 22.948 14.1361 23.4212 14.4839L25.078 15.7044C25.4208 15.9569 25.5662 16.3989 25.4399 16.8057C24.8552 18.6913 23.8507 20.4199 22.5019 21.8615C22.2122 22.1711 21.7587 22.2644 21.3703 22.0941L19.4952 21.2727C18.9588 21.0379 18.3427 21.0723 17.8358 21.3653C17.3288 21.6583 16.9914 22.1749 16.927 22.7569L16.7015 24.7925C16.6551 25.2123 16.3499 25.5576 15.9391 25.6553C14.0078 26.1148 11.9956 26.1148 10.0644 25.6553C9.65357 25.5576 9.34843 25.2123 9.30195 24.7925L9.07684 22.76C9.01073 22.1791 8.67283 21.664 8.16627 21.372C7.65971 21.08 7.04464 21.0457 6.50996 21.2792L4.63447 22.1008C4.24599 22.2711 3.79241 22.1777 3.50275 21.8679C2.1532 20.4247 1.14863 18.694 0.564628 16.8064C0.438855 16.3999 0.584188 15.9581 0.926828 15.7057L2.5846 14.4844C3.05679 14.1375 3.33567 13.5865 3.33567 13.0007C3.33567 12.4147 3.05679 11.8637 2.58399 11.5164L0.927255 10.2971C0.584095 10.0446 0.438628 9.60237 0.564855 9.19544C1.14986 7.30953 2.15496 5.58085 3.50453 4.13949C3.79449 3.82981 4.24828 3.73679 4.63669 3.90741L6.50386 4.72763C7.04112 4.96341 7.65876 4.9278 8.16805 4.63025C8.67515 4.33612 9.01275 3.81896 9.07792 3.23685L9.30469 1.20261C9.35205 0.7778 9.66419 0.430053 10.0814 0.337253C11.0378 0.12456 12.0136 0.0115333 13.0166 0ZM12.9999 8.99993C10.7908 8.99993 8.99996 10.7908 8.99996 13C8.99996 15.2091 10.7908 17 12.9999 17C15.2091 17 16.9999 15.2091 16.9999 13C16.9999 10.7908 15.2091 8.99993 12.9999 8.99993Z"/>
</mask>
<path d="M13.0166 0L13.0396 -1.99987L13.0166 -2.00013L12.9936 -1.99987L13.0166 0ZM15.9252 0.337387L15.4899 2.28943L15.49 2.28944L15.9252 0.337387ZM16.7015 1.20261L18.6892 0.981044L18.6892 0.981031L16.7015 1.20261ZM16.9284 3.23841L18.9165 3.02006L18.9161 3.01684L16.9284 3.23841ZM18.7612 4.88211L18.7644 2.88211L18.7633 2.88211L18.7612 4.88211ZM19.4979 4.72644L18.6936 2.8953L18.6884 2.89759L19.4979 4.72644ZM21.3655 3.90608L22.1698 5.73721L22.1699 5.73718L21.3655 3.90608ZM22.4976 4.13816L23.9576 2.77118L23.9575 2.77109L22.4976 4.13816ZM25.4372 9.19411L23.527 9.78658L23.527 9.78659L25.4372 9.19411ZM25.0755 10.2953L23.889 8.6853L23.8888 8.68541L25.0755 10.2953ZM23.4202 11.5155L24.6045 13.1271L24.6068 13.1254L23.4202 11.5155ZM23.4212 14.4839L24.6075 12.8736L24.6056 12.8722L23.4212 14.4839ZM25.078 15.7044L23.8918 17.3146L23.8918 17.3146L25.078 15.7044ZM25.4399 16.8057L23.5298 16.2129L23.5296 16.2134L25.4399 16.8057ZM22.5019 21.8615L23.9622 23.228L23.9623 23.2279L22.5019 21.8615ZM21.3703 22.0941L22.1733 20.2624L22.1729 20.2622L21.3703 22.0941ZM19.4952 21.2727L20.2978 19.4408L20.2972 19.4405L19.4952 21.2727ZM17.8358 21.3653L18.8364 23.097L18.8368 23.0968L17.8358 21.3653ZM16.927 22.7569L18.9148 22.9771L18.9148 22.9769L16.927 22.7569ZM16.7015 24.7925L14.7137 24.5724L14.7136 24.5728L16.7015 24.7925ZM15.9391 25.6553L16.402 27.601L16.402 27.601L15.9391 25.6553ZM10.0644 25.6553L10.5273 23.7096L10.5273 23.7096L10.0644 25.6553ZM9.30195 24.7925L11.2898 24.5724L11.2898 24.5724L9.30195 24.7925ZM9.07684 22.76L11.0647 22.5398L11.064 22.5339L9.07684 22.76ZM6.50996 21.2792L5.70964 19.4463L5.70745 19.4473L6.50996 21.2792ZM4.63447 22.1008L3.83195 20.2689L3.83162 20.269L4.63447 22.1008ZM3.50275 21.8679L4.96378 20.5021L4.96357 20.5018L3.50275 21.8679ZM0.564628 16.8064L-1.34602 17.3975L-1.34602 17.3975L0.564628 16.8064ZM0.926828 15.7057L2.11301 17.316L2.11311 17.3159L0.926828 15.7057ZM2.5846 14.4844L1.4004 12.8727L1.39832 12.8742L2.5846 14.4844ZM2.58399 11.5164L1.39853 13.1272L1.3999 13.1282L2.58399 11.5164ZM0.927255 10.2971L2.11272 8.68633L2.11268 8.6863L0.927255 10.2971ZM0.564855 9.19544L-1.34535 8.6029L-1.34536 8.60291L0.564855 9.19544ZM3.50453 4.13949L2.0446 2.77253L2.0446 2.77253L3.50453 4.13949ZM4.63669 3.90741L3.8323 5.73852L3.83232 5.73853L4.63669 3.90741ZM6.50386 4.72763L5.69948 6.55874L5.70012 6.55902L6.50386 4.72763ZM8.16805 4.63025L7.16456 2.90021L7.15915 2.90337L8.16805 4.63025ZM9.07792 3.23685L11.0655 3.45939L11.0656 3.45844L9.07792 3.23685ZM9.30469 1.20261L7.31701 0.981017L7.31701 0.981029L9.30469 1.20261ZM10.0814 0.337253L9.64724 -1.61505L9.64724 -1.61504L10.0814 0.337253ZM12.9935 1.99987C13.8335 2.00955 14.6701 2.10659 15.4899 2.28943L16.3606 -1.61465C15.27 -1.8579 14.157 -1.98699 13.0396 -1.99987L12.9935 1.99987ZM15.49 2.28944C15.0731 2.1965 14.7612 1.84895 14.7138 1.4242L18.6892 0.981031C18.5472 -0.292921 17.6115 -1.33573 16.3605 -1.61467L15.49 2.28944ZM14.7138 1.42418L14.9408 3.45998L18.9161 3.01684L18.6892 0.981044L14.7138 1.42418ZM14.9404 3.45677C15.1544 5.40512 16.7994 6.88005 18.7591 6.88211L18.7633 2.88211C18.8412 2.88219 18.9078 2.94118 18.9165 3.02006L14.9404 3.45677ZM18.7581 6.8821C19.292 6.88295 19.8191 6.77145 20.3074 6.55529L18.6884 2.89759C18.7095 2.88823 18.736 2.88206 18.7644 2.88211L18.7581 6.8821ZM20.3022 6.55757L22.1698 5.73721L20.5612 2.07495L18.6936 2.89531L20.3022 6.55757ZM22.1699 5.73718C21.7814 5.90787 21.3276 5.81468 21.0378 5.50523L23.9575 2.77109C23.0877 1.84228 21.7265 1.56303 20.5611 2.07498L22.1699 5.73718ZM21.0377 5.50514C22.1806 6.7257 23.0317 8.18957 23.527 9.78658L27.3475 8.60163C26.6729 6.42683 25.5139 4.43334 23.9576 2.77118L21.0377 5.50514ZM23.527 9.78659C23.401 9.38036 23.5458 8.93819 23.889 8.6853L26.262 11.9054C27.2908 11.1472 27.7257 9.82118 27.3475 8.60162L23.527 9.78659ZM23.8888 8.68541L22.2335 9.90555L24.6068 13.1254L26.2622 11.9053L23.8888 8.68541ZM22.2359 9.9038C21.251 10.6275 20.6691 11.7768 20.6691 12.9993H24.6691C24.6691 13.0499 24.645 13.0973 24.6045 13.1271L22.2359 9.9038ZM20.6691 12.9993C20.6691 14.2226 21.2517 15.3715 22.2369 16.0955L24.6056 12.8722C24.6443 12.9007 24.6691 12.9478 24.6691 12.9993H20.6691ZM22.235 16.0941L23.8918 17.3146L26.2643 14.0942L24.6075 12.8736L22.235 16.0941ZM23.8918 17.3146C23.5489 17.062 23.4035 16.6198 23.5298 16.2129L27.35 17.3986C27.7289 16.178 27.2928 14.8518 26.2643 14.0942L23.8918 17.3146ZM23.5296 16.2134C23.0345 17.8103 22.1838 19.2741 21.0415 20.495L23.9623 23.2279C25.5176 21.5656 26.676 19.5724 27.3502 17.398L23.5296 16.2134ZM21.0416 20.4949C21.331 20.1856 21.7845 20.092 22.1733 20.2624L20.5673 23.9259C21.7329 24.4368 23.0933 24.1565 23.9622 23.228L21.0416 20.4949ZM22.1729 20.2622L20.2978 19.4408L18.6927 23.1046L20.5677 23.926L22.1729 20.2622ZM20.2972 19.4405C19.178 18.9506 17.8925 19.0224 16.8348 19.6339L18.8368 23.0968C18.7929 23.1222 18.7396 23.1251 18.6932 23.1048L20.2972 19.4405ZM16.8351 19.6337C15.7775 20.2448 15.0735 21.3227 14.9391 22.537L18.9148 22.9769C18.9093 23.0272 18.8802 23.0717 18.8364 23.097L16.8351 19.6337ZM14.9391 22.5368L14.7137 24.5724L18.6894 25.0127L18.9148 22.9771L14.9391 22.5368ZM14.7136 24.5728C14.7601 24.1527 15.0654 23.8074 15.4762 23.7096L16.402 27.601C17.6344 27.3078 18.5502 26.2719 18.6894 25.0123L14.7136 24.5728ZM15.4762 23.7096C13.8492 24.0967 12.1542 24.0967 10.5273 23.7096L9.60151 27.601C11.8371 28.1329 14.1663 28.1329 16.402 27.601L15.4762 23.7096ZM10.5273 23.7096C10.9383 23.8074 11.2433 24.1528 11.2898 24.5724L7.3141 25.0127C7.45353 26.2718 8.36889 27.3078 9.60156 27.601L10.5273 23.7096ZM11.2898 24.5724L11.0647 22.5398L7.089 22.9802L7.3141 25.0127L11.2898 24.5724ZM11.064 22.5339C10.9262 21.3223 10.2214 20.2482 9.16508 19.6393L7.16746 23.1047C7.12421 23.0798 7.09532 23.0358 7.08967 22.9861L11.064 22.5339ZM9.16508 19.6393C8.10938 19.0307 6.8267 18.9585 5.70964 19.4463L7.31029 23.1121C7.26259 23.1329 7.21004 23.1293 7.16746 23.1047L9.16508 19.6393ZM5.70745 19.4473L3.83195 20.2689L5.43698 23.9327L7.31248 23.1111L5.70745 19.4473ZM3.83162 20.269C4.22013 20.0987 4.67399 20.1921 4.96378 20.5021L2.04171 23.2337C2.91084 24.1634 4.27185 24.4434 5.43732 23.9326L3.83162 20.269ZM4.96357 20.5018C3.82067 19.2796 2.96988 17.8139 2.47527 16.2153L-1.34602 17.3975C-0.672622 19.5741 0.485733 21.5697 2.04193 23.2339L4.96357 20.5018ZM2.47528 16.2153C2.60106 16.6218 2.45582 17.0635 2.11301 17.316L-0.259352 14.0955C-1.28744 14.8528 -1.72335 16.1779 -1.34602 17.3975L2.47528 16.2153ZM2.11311 17.3159L3.77088 16.0946L1.39832 12.8742L-0.259454 14.0955L2.11311 17.3159ZM3.7688 16.0961C4.75381 15.3724 5.33567 14.2231 5.33567 13.0007H1.33567C1.33567 12.95 1.35977 12.9025 1.4004 12.8727L3.7688 16.0961ZM5.33567 13.0007C5.33567 11.7778 4.75353 10.6285 3.76808 9.90459L1.3999 13.1282C1.36005 13.0989 1.33567 13.0515 1.33567 13.0007H5.33567ZM3.76945 9.9056L2.11272 8.68633L-0.258207 11.9079L1.39853 13.1272L3.76945 9.9056ZM2.11268 8.6863C2.45583 8.93883 2.60129 9.38105 2.47507 9.78797L-1.34536 8.60291C-1.72403 9.8237 -1.28764 11.1504 -0.258165 11.908L2.11268 8.6863ZM2.47506 9.78798C2.97046 8.19094 3.82161 6.72704 4.96447 5.50646L2.0446 2.77253C0.48831 4.43466 -0.670749 6.42813 -1.34535 8.6029L2.47506 9.78798ZM4.96447 5.50646C4.67454 5.8161 4.22074 5.90916 3.8323 5.73852L5.44108 2.07631C4.27582 1.56442 2.91445 1.84352 2.0446 2.77253L4.96447 5.50646ZM3.83232 5.73853L5.69948 6.55874L7.30823 2.89651L5.44107 2.0763L3.83232 5.73853ZM5.70012 6.55902C6.82521 7.05278 8.11659 6.97664 9.17696 6.35713L7.15915 2.90337C7.20094 2.87896 7.25704 2.87404 7.30759 2.89623L5.70012 6.55902ZM9.17154 6.36029C10.2268 5.74818 10.9298 4.67185 11.0655 3.45939L7.09034 3.01432C7.09574 2.96607 7.12347 2.92406 7.16457 2.90022L9.17154 6.36029ZM11.0656 3.45844L11.2924 1.4242L7.31701 0.981029L7.09023 3.01527L11.0656 3.45844ZM11.2924 1.42421C11.245 1.84901 10.9329 2.19675 10.5156 2.28955L9.64724 -1.61504C8.39548 -1.33665 7.45909 -0.293413 7.31701 0.981017L11.2924 1.42421ZM10.5156 2.28955C11.3355 2.10721 12.1735 2.00983 13.0396 1.99987L12.9936 -1.99987C11.8538 -1.98676 10.74 -1.85809 9.64724 -1.61505L10.5156 2.28955ZM12.9999 6.99993C9.68624 6.99993 6.99996 9.68626 6.99996 13H11C11 11.8953 11.8954 10.9999 12.9999 10.9999V6.99993ZM6.99996 13C6.99996 16.3136 9.68624 19 12.9999 19V15C11.8954 15 11 14.1045 11 13H6.99996ZM12.9999 19C16.3137 19 18.9999 16.3136 18.9999 13H14.9999C14.9999 14.1045 14.1045 15 12.9999 15V19ZM18.9999 13C18.9999 9.68627 16.3137 6.99993 12.9999 6.99993V10.9999C14.1045 10.9999 14.9999 11.8953 14.9999 13H18.9999Z" fill="#191919" mask="url(#path-1-inside-1_96:12)"/>
</svg>
