<svg width="25" height="25" viewBox="0 0 25 25" fill="none" xmlns="http://www.w3.org/2000/svg">
<path d="M10.1614 11.7972C10.1759 10.6927 11.083 9.80911 12.1875 9.82364C13.292 9.83817 14.1755 10.7453 14.161 11.8498C14.1465 12.9542 13.2394 13.8378 12.1349 13.8233C11.0304 13.8088 10.1468 12.9016 10.1614 11.7972ZM10.2841 4.46464C10.2986 3.3602 11.2058 2.47659 12.3102 2.49112C13.4147 2.50564 14.2983 3.41281 14.2838 4.51725C14.2692 5.62168 13.3621 6.5053 12.2576 6.49077C11.1532 6.47624 10.2696 5.56908 10.2841 4.46464ZM10.0386 19.1297C10.0531 18.0252 10.9603 17.1416 12.0647 17.1562C13.1692 17.1707 14.0528 18.0778 14.0383 19.1823C14.0237 20.2868 13.1166 21.1703 12.0121 21.1558C10.9076 21.1413 10.0241 20.2342 10.0386 19.1297Z" fill="#212121"/>
</svg>
