<svg width="24" height="24" viewBox="0 0 24 24" fill="none" xmlns="http://www.w3.org/2000/svg">
<path d="M21.0304 2.96997C22.4279 4.36743 22.4279 6.63317 21.0304 8.03063L9.0621 19.999C8.78522 20.2758 8.44088 20.4757 8.06312 20.5787L2.94743 21.9739C2.38756 22.1266 1.87383 21.6128 2.02652 21.053L3.42171 15.9373C3.52474 15.5595 3.72456 15.2152 4.00144 14.9383L15.9698 2.96997C17.3672 1.57251 19.633 1.57251 21.0304 2.96997ZM15.0003 6.06088L5.0621 15.999C4.96981 16.0913 4.9032 16.206 4.86886 16.332L3.81901 20.1814L7.66845 19.1315C7.79437 19.0972 7.90915 19.0306 8.00144 18.9383L17.9393 8.99988L15.0003 6.06088ZM17.0304 4.03063L16.0603 4.99988L18.9993 7.93988L19.9698 6.96997C20.7814 6.1583 20.7814 4.84231 19.9698 4.03063C19.1581 3.21896 17.8421 3.21896 17.0304 4.03063Z" fill="#191919"/>
</svg>
