<svg width="18" height="18" viewBox="0 0 18 18" fill="none" xmlns="http://www.w3.org/2000/svg">
<path d="M4.38234 3.42591C6.93264 0.875607 11.0675 0.875607 13.6178 3.42591C16.1681 5.97622 16.1681 10.1111 13.6178 12.6614L12.7276 13.5418C12.0715 14.1858 11.2201 15.0138 10.1732 16.0259C9.51899 16.6585 8.48114 16.6584 7.82706 16.0258L5.20874 13.4788C4.87967 13.1557 4.60422 12.8833 4.38234 12.6614C1.83203 10.1111 1.83203 5.97622 4.38234 3.42591ZM12.8223 4.22141C10.7113 2.11044 7.2888 2.11044 5.17783 4.22141C3.06687 6.33237 3.06687 9.75495 5.17783 11.8659L6.29314 12.9665C6.90731 13.5676 7.67939 14.3179 8.60916 15.2171C8.82719 15.4279 9.17316 15.428 9.39119 15.2172L11.9374 12.7411C12.2891 12.3958 12.5841 12.1041 12.8223 11.8659C14.9333 9.75495 14.9333 6.33237 12.8223 4.22141ZM9.00006 5.9989C10.2433 5.9989 11.2513 7.00678 11.2513 8.25007C11.2513 9.49335 10.2433 10.5012 9.00006 10.5012C7.75679 10.5012 6.74892 9.49335 6.74892 8.25007C6.74892 7.00678 7.75679 5.9989 9.00006 5.9989ZM9.00006 7.1239C8.37809 7.1239 7.87394 7.6281 7.87394 8.25007C7.87394 8.87205 8.37809 9.3762 9.00006 9.3762C9.62204 9.3762 10.1263 8.87205 10.1263 8.25007C10.1263 7.6281 9.62204 7.1239 9.00006 7.1239Z" fill="#212121"/>
</svg>
