<svg width="32" height="33" viewBox="0 0 32 33" fill="none" xmlns="http://www.w3.org/2000/svg">
<path d="M16.0167 3.80542C16.9954 3.8167 17.9702 3.92977 18.9254 4.14281C19.3424 4.23581 19.6543 4.58343 19.7016 5.00803L19.9286 7.04383C20.0312 7.97857 20.8204 8.68654 21.7614 8.68753C22.0142 8.68793 22.2644 8.63526 22.498 8.53186L24.3656 7.7115C24.754 7.54087 25.2078 7.6339 25.4978 7.94358C26.8474 9.38494 27.8524 11.1136 28.4374 12.9995C28.5635 13.4062 28.4184 13.8481 28.0756 14.1008L26.4203 15.3209C25.9482 15.6678 25.6692 16.2188 25.6692 16.8048C25.6692 17.3906 25.9482 17.9416 26.4214 18.2893L28.0782 19.5098C28.421 19.7624 28.5663 20.2044 28.44 20.6112C27.8554 22.4968 26.8508 24.2253 25.502 25.6669C25.2123 25.9765 24.7588 26.0698 24.3704 25.8996L22.4954 25.0781C21.959 24.8433 21.3428 24.8777 20.8359 25.1708C20.329 25.4637 19.9915 25.9804 19.9271 26.5624L19.7016 28.598C19.6552 29.0177 19.35 29.363 18.9392 29.4608C17.0079 29.9202 14.9958 29.9202 13.0645 29.4608C12.6537 29.363 12.3486 29.0177 12.3021 28.598L12.077 26.5654C12.0109 25.9845 11.673 25.4694 11.1664 25.1774C10.6598 24.8854 10.0448 24.8512 9.51008 25.0846L7.63459 25.9062C7.24611 26.0765 6.79254 25.9832 6.50287 25.6733C5.15332 24.2301 4.14875 22.4994 3.56475 20.6118C3.43898 20.2053 3.58431 19.7636 3.92695 19.5112L5.58472 18.2898C6.05691 17.9429 6.33579 17.392 6.33579 16.8061C6.33579 16.2201 6.05691 15.6692 5.58411 15.3218L3.92738 14.1026C3.58422 13.85 3.43875 13.4078 3.56498 13.0009C4.14998 11.115 5.15508 9.38627 6.50466 7.94491C6.79462 7.63523 7.2484 7.54221 7.63682 7.71283L9.50398 8.53305C10.0412 8.76883 10.6589 8.73322 11.1682 8.43567C11.6753 8.14154 12.0129 7.62438 12.078 7.04227L12.3048 5.00803C12.3522 4.58322 12.6643 4.23547 13.0816 4.14267C14.0379 3.92998 15.0138 3.81695 16.0167 3.80542ZM16 12.8054C13.791 12.8054 12.0001 14.5962 12.0001 16.8054C12.0001 19.0145 13.791 20.8054 16 20.8054C18.2092 20.8054 20 19.0145 20 16.8054C20 14.5962 18.2092 12.8054 16 12.8054Z" fill="#191919"/>
</svg>
