<svg width="168" height="161" viewBox="0 0 168 161" fill="none" xmlns="http://www.w3.org/2000/svg">
<path d="M84.2686 50.4626V84.1045" stroke="white" stroke-linecap="round" stroke-linejoin="round"/>
<path d="M77.1479 76.896L84.2693 84.105L91.3906 76.896" stroke="white" stroke-linecap="round" stroke-linejoin="round"/>
<path d="M113.941 84.1042H104.446C101.825 84.1042 99.6984 86.2573 99.6984 88.9102C99.6984 91.5631 97.5715 93.7162 94.9509 93.7162H73.5869C70.9662 93.7162 68.8393 91.5631 68.8393 88.9102C68.8393 86.2573 66.7124 84.1042 64.0918 84.1042H54.5967" stroke="white" stroke-linecap="round" stroke-linejoin="round"/>
<path d="M54.9253 84.1042V106.933C54.9253 108.925 56.5301 110.537 58.5074 110.537H111.045C113.022 110.537 114.627 108.925 114.627 106.933V84.1042" stroke="white" stroke-linecap="round" stroke-linejoin="round"/>
<path d="M89.5522 62.4775H100.299L114.627 84.1044" stroke="white" stroke-linecap="round" stroke-linejoin="round"/>
<path d="M54.9253 83.5821C60.5209 75.1888 63.6581 70.4829 69.2536 62.0896H79.9999" stroke="white" stroke-linecap="round" stroke-linejoin="round"/>
</svg>
